# xmcd
#
# Track frame offsets: 
#        150
#        19442
#        38095
#        57378
#        73074
#        82220
#        97614
#        109870
#        130289
#        153325
#        168389
#        181860
#        193303
#        213785
#        228446
#        243890
#        266025
#        287557
#        302362
#        313171
#        329483
#
# Disc length: 4819 seconds
#
# Revision: 0
# Processed by: cddbd v1.5.2PL0 Copyright (c) Steve Scherf et al.
# Submitted via: ExactAudioCopy v1.3
#
DISCID=2a12d115
DTITLE=Paul Lamb and The King Snakes - Harmonica Man [disk 2[
DYEAR=2003
DGENRE=Harmonica Blues, Electric Blues
TTITLE0=Harmonica Man
TTITLE1=Pillow
TTITLE2=Should Be Mine
TTITLE3=John Henry Jumps In
TTITLE4=My Baby Left Me
TTITLE5=Jump For It
TTITLE6=Done Quit Drinkin'
TTITLE7=Please Tell Me
TTITLE8=Millennium Blues
TTITLE9=Look Out Pinetop
TTITLE10=I'm A Bluesman
TTITLE11=No Glue In The World
TTITLE12=Crazy For Me
TTITLE13=Tuesday Blues
TTITLE14=Days Of Jive
TTITLE15=Take Your Time
TTITLE16=Mad About My Baby [Live]
TTITLE17=More Than Alright [Live]
TTITLE18=I'm Going Down [Live]
TTITLE19=Hootin' And Screamin' [Live]
TTITLE20=Makes You Feel Good [Live]
EXTD=
EXTT0=
EXTT1=
EXTT2=
EXTT3=
EXTT4=
EXTT5=
EXTT6=
EXTT7=
EXTT8=
EXTT9=
EXTT10=
EXTT11=
EXTT12=
EXTT13=
EXTT14=
EXTT15=
EXTT16=
EXTT17=
EXTT18=
EXTT19=
EXTT20=
PLAYORDER=
